<mxfile host="65bd71144e">
    <diagram id="JCXDQ21aCLRVYIDHCTEe" name="Page-1">
        <mxGraphModel dx="1306" dy="614" grid="1" gridSize="10" guides="1" tooltips="1" connect="1" arrows="1" fold="1" page="1" pageScale="1" pageWidth="850" pageHeight="1100" math="0" shadow="0">
            <root>
                <mxCell id="0"/>
                <mxCell id="1" parent="0"/>
                <mxCell id="5" value="Cats" style="whiteSpace=wrap;html=1;align=center;" vertex="1" parent="1">
                    <mxGeometry x="350" y="240" width="100" height="40" as="geometry"/>
                </mxCell>
                <mxCell id="6" value="&lt;span style=&quot;border-bottom: 1px dotted&quot;&gt;cat_name&lt;/span&gt;" style="ellipse;whiteSpace=wrap;html=1;align=center;" vertex="1" parent="1">
                    <mxGeometry x="190" y="240" width="100" height="40" as="geometry"/>
                </mxCell>
                <mxCell id="7" value="&lt;span style=&quot;border-bottom: 1px dotted&quot;&gt;fur_color&lt;/span&gt;" style="ellipse;whiteSpace=wrap;html=1;align=center;" vertex="1" parent="1">
                    <mxGeometry x="350" y="380" width="100" height="40" as="geometry"/>
                </mxCell>
                <mxCell id="8" value="&lt;span style=&quot;border-bottom: 1px dotted&quot;&gt;Id&lt;/span&gt;" style="ellipse;whiteSpace=wrap;html=1;align=center;" vertex="1" parent="1">
                    <mxGeometry x="350" y="110" width="100" height="40" as="geometry"/>
                </mxCell>
                <mxCell id="11" value="" style="endArrow=none;html=1;rounded=0;exitX=0.5;exitY=1;exitDx=0;exitDy=0;entryX=0.5;entryY=0;entryDx=0;entryDy=0;" edge="1" parent="1" source="8" target="5">
                    <mxGeometry relative="1" as="geometry">
                        <mxPoint x="740" y="310" as="sourcePoint"/>
                        <mxPoint x="900" y="310" as="targetPoint"/>
                    </mxGeometry>
                </mxCell>
                <mxCell id="12" value="" style="endArrow=none;html=1;rounded=0;exitX=0.5;exitY=1;exitDx=0;exitDy=0;" edge="1" parent="1" source="5" target="7">
                    <mxGeometry relative="1" as="geometry">
                        <mxPoint x="740" y="310" as="sourcePoint"/>
                        <mxPoint x="900" y="310" as="targetPoint"/>
                    </mxGeometry>
                </mxCell>
                <mxCell id="13" value="" style="endArrow=none;html=1;rounded=0;exitX=1;exitY=0.5;exitDx=0;exitDy=0;entryX=0;entryY=0.5;entryDx=0;entryDy=0;" edge="1" parent="1" source="6" target="5">
                    <mxGeometry relative="1" as="geometry">
                        <mxPoint x="740" y="310" as="sourcePoint"/>
                        <mxPoint x="900" y="310" as="targetPoint"/>
                    </mxGeometry>
                </mxCell>
                <mxCell id="15" value="Servants" style="whiteSpace=wrap;html=1;align=center;" vertex="1" parent="1">
                    <mxGeometry x="830" y="240" width="100" height="40" as="geometry"/>
                </mxCell>
                <mxCell id="16" value="&lt;span style=&quot;border-bottom: 1px dotted&quot;&gt;serv_name&lt;/span&gt;" style="ellipse;whiteSpace=wrap;html=1;align=center;" vertex="1" parent="1">
                    <mxGeometry x="980" y="240" width="100" height="40" as="geometry"/>
                </mxCell>
                <mxCell id="17" value="&lt;span style=&quot;border-bottom: 1px dotted&quot;&gt;yrs_served&lt;/span&gt;" style="ellipse;whiteSpace=wrap;html=1;align=center;" vertex="1" parent="1">
                    <mxGeometry x="830" y="380" width="100" height="40" as="geometry"/>
                </mxCell>
                <mxCell id="18" value="&lt;span style=&quot;border-bottom: 1px dotted&quot;&gt;Id&lt;/span&gt;" style="ellipse;whiteSpace=wrap;html=1;align=center;" vertex="1" parent="1">
                    <mxGeometry x="830" y="110" width="100" height="40" as="geometry"/>
                </mxCell>
                <mxCell id="19" value="" style="endArrow=none;html=1;rounded=0;exitX=0.5;exitY=1;exitDx=0;exitDy=0;entryX=0.5;entryY=0;entryDx=0;entryDy=0;" edge="1" source="18" target="15" parent="1">
                    <mxGeometry relative="1" as="geometry">
                        <mxPoint x="1220" y="310" as="sourcePoint"/>
                        <mxPoint x="1380" y="310" as="targetPoint"/>
                    </mxGeometry>
                </mxCell>
                <mxCell id="20" value="" style="endArrow=none;html=1;rounded=0;exitX=0.5;exitY=1;exitDx=0;exitDy=0;" edge="1" source="15" target="17" parent="1">
                    <mxGeometry relative="1" as="geometry">
                        <mxPoint x="1220" y="310" as="sourcePoint"/>
                        <mxPoint x="1380" y="310" as="targetPoint"/>
                    </mxGeometry>
                </mxCell>
                <mxCell id="21" value="" style="endArrow=none;html=1;rounded=0;exitX=0;exitY=0.5;exitDx=0;exitDy=0;entryX=1;entryY=0.5;entryDx=0;entryDy=0;" edge="1" source="16" target="15" parent="1">
                    <mxGeometry relative="1" as="geometry">
                        <mxPoint x="1220" y="310" as="sourcePoint"/>
                        <mxPoint x="1380" y="310" as="targetPoint"/>
                    </mxGeometry>
                </mxCell>
                <mxCell id="22" value="have" style="shape=rhombus;perimeter=rhombusPerimeter;whiteSpace=wrap;html=1;align=center;" vertex="1" parent="1">
                    <mxGeometry x="590" y="230" width="120" height="60" as="geometry"/>
                </mxCell>
                <mxCell id="26" value="" style="endArrow=none;html=1;rounded=0;" edge="1" parent="1">
                    <mxGeometry relative="1" as="geometry">
                        <mxPoint x="710" y="260" as="sourcePoint"/>
                        <mxPoint x="830" y="260" as="targetPoint"/>
                    </mxGeometry>
                </mxCell>
                <mxCell id="27" value="1" style="resizable=0;html=1;whiteSpace=wrap;align=right;verticalAlign=bottom;" connectable="0" vertex="1" parent="26">
                    <mxGeometry x="1" relative="1" as="geometry"/>
                </mxCell>
                <mxCell id="28" value="" style="endArrow=none;html=1;rounded=0;exitX=0;exitY=0.5;exitDx=0;exitDy=0;entryX=1;entryY=0.5;entryDx=0;entryDy=0;" edge="1" parent="1" source="22" target="5">
                    <mxGeometry relative="1" as="geometry">
                        <mxPoint x="510" y="399.5" as="sourcePoint"/>
                        <mxPoint x="460" y="260" as="targetPoint"/>
                    </mxGeometry>
                </mxCell>
                <mxCell id="29" value="1" style="resizable=0;html=1;whiteSpace=wrap;align=right;verticalAlign=bottom;" connectable="0" vertex="1" parent="28">
                    <mxGeometry x="1" relative="1" as="geometry"/>
                </mxCell>
            </root>
        </mxGraphModel>
    </diagram>
</mxfile>